<mxfile host="Electron" agent="Mozilla/5.0 (Windows NT 10.0; Win64; x64) AppleWebKit/537.36 (KHTML, like Gecko) draw.io/26.1.1 Chrome/132.0.6834.210 Electron/34.3.3 Safari/537.36" version="26.1.1">
  <diagram name="Page-1" id="Pky_TOVWznoUA1scNFFX">
    <mxGraphModel dx="2391" dy="1194" grid="1" gridSize="10" guides="1" tooltips="1" connect="1" arrows="1" fold="1" page="1" pageScale="1" pageWidth="850" pageHeight="1100" math="0" shadow="0">
      <root>
        <mxCell id="0" />
        <mxCell id="1" parent="0" />
        <mxCell id="8AGuU69_h8K9wH-vG9Zy-5" value="" style="html=1;whiteSpace=wrap;" parent="1" vertex="1">
          <mxGeometry x="220" y="90" width="500" height="1260" as="geometry" />
        </mxCell>
        <mxCell id="8AGuU69_h8K9wH-vG9Zy-1" value="Artist" style="shape=umlActor;verticalLabelPosition=bottom;verticalAlign=top;html=1;outlineConnect=0;" parent="1" vertex="1">
          <mxGeometry x="140" y="270" width="30" height="60" as="geometry" />
        </mxCell>
        <mxCell id="8AGuU69_h8K9wH-vG9Zy-2" value="Buyer" style="shape=umlActor;verticalLabelPosition=bottom;verticalAlign=top;html=1;outlineConnect=0;" parent="1" vertex="1">
          <mxGeometry x="120" y="540" width="30" height="60" as="geometry" />
        </mxCell>
        <mxCell id="8AGuU69_h8K9wH-vG9Zy-3" value="&lt;div&gt;Collector&lt;/div&gt;" style="shape=umlActor;verticalLabelPosition=bottom;verticalAlign=top;html=1;outlineConnect=0;" parent="1" vertex="1">
          <mxGeometry x="120" y="1065" width="30" height="60" as="geometry" />
        </mxCell>
        <mxCell id="8AGuU69_h8K9wH-vG9Zy-4" value="Dealer&lt;div&gt;&lt;br&gt;&lt;/div&gt;" style="shape=umlActor;verticalLabelPosition=bottom;verticalAlign=top;html=1;outlineConnect=0;" parent="1" vertex="1">
          <mxGeometry x="120" y="880" width="30" height="60" as="geometry" />
        </mxCell>
        <mxCell id="8AGuU69_h8K9wH-vG9Zy-6" value="Art Site" style="text;html=1;align=center;verticalAlign=middle;resizable=0;points=[];autosize=1;strokeColor=none;fillColor=none;" parent="1" vertex="1">
          <mxGeometry x="480" y="100" width="60" height="30" as="geometry" />
        </mxCell>
        <mxCell id="8AGuU69_h8K9wH-vG9Zy-8" value="upload artwork" style="ellipse;whiteSpace=wrap;html=1;" parent="1" vertex="1">
          <mxGeometry x="385" y="145" width="80" height="50" as="geometry" />
        </mxCell>
        <mxCell id="8AGuU69_h8K9wH-vG9Zy-35" value="modify&lt;div&gt;artwork&lt;/div&gt;" style="ellipse;whiteSpace=wrap;html=1;" parent="1" vertex="1">
          <mxGeometry x="390" y="270" width="80" height="50" as="geometry" />
        </mxCell>
        <mxCell id="8AGuU69_h8K9wH-vG9Zy-67" value="make an order" style="ellipse;whiteSpace=wrap;html=1;" parent="1" vertex="1">
          <mxGeometry x="385" y="410" width="80" height="50" as="geometry" />
        </mxCell>
        <mxCell id="8AGuU69_h8K9wH-vG9Zy-76" value="cancle an order" style="ellipse;whiteSpace=wrap;html=1;" parent="1" vertex="1">
          <mxGeometry x="400" y="540" width="80" height="50" as="geometry" />
        </mxCell>
        <mxCell id="8AGuU69_h8K9wH-vG9Zy-83" value="search an artwork" style="ellipse;whiteSpace=wrap;html=1;" parent="1" vertex="1">
          <mxGeometry x="370" y="650" width="80" height="50" as="geometry" />
        </mxCell>
        <mxCell id="8AGuU69_h8K9wH-vG9Zy-102" value="set an auction" style="ellipse;whiteSpace=wrap;html=1;" parent="1" vertex="1">
          <mxGeometry x="400" y="820" width="80" height="50" as="geometry" />
        </mxCell>
        <mxCell id="8AGuU69_h8K9wH-vG9Zy-119" value="start Communite&amp;nbsp;" style="ellipse;whiteSpace=wrap;html=1;" parent="1" vertex="1">
          <mxGeometry x="390" y="1065" width="80" height="50" as="geometry" />
        </mxCell>
        <mxCell id="D9dwtIjZdYDTWbsvC_wG-8" value="" style="endArrow=none;html=1;rounded=0;entryX=0;entryY=0.5;entryDx=0;entryDy=0;" edge="1" parent="1" source="8AGuU69_h8K9wH-vG9Zy-1" target="8AGuU69_h8K9wH-vG9Zy-8">
          <mxGeometry width="50" height="50" relative="1" as="geometry">
            <mxPoint x="290" y="220" as="sourcePoint" />
            <mxPoint x="360.71067811865476" y="170" as="targetPoint" />
          </mxGeometry>
        </mxCell>
        <mxCell id="D9dwtIjZdYDTWbsvC_wG-9" value="" style="endArrow=none;html=1;rounded=0;entryX=0;entryY=0.5;entryDx=0;entryDy=0;exitX=1;exitY=0.3333333333333333;exitDx=0;exitDy=0;exitPerimeter=0;" edge="1" parent="1" source="8AGuU69_h8K9wH-vG9Zy-1" target="8AGuU69_h8K9wH-vG9Zy-35">
          <mxGeometry width="50" height="50" relative="1" as="geometry">
            <mxPoint x="290" y="170" as="sourcePoint" />
            <mxPoint x="395" y="180" as="targetPoint" />
          </mxGeometry>
        </mxCell>
        <mxCell id="D9dwtIjZdYDTWbsvC_wG-12" value="join an auction" style="ellipse;whiteSpace=wrap;html=1;" vertex="1" parent="1">
          <mxGeometry x="390" y="930" width="80" height="50" as="geometry" />
        </mxCell>
        <mxCell id="D9dwtIjZdYDTWbsvC_wG-13" value="join Communite&amp;nbsp;" style="ellipse;whiteSpace=wrap;html=1;" vertex="1" parent="1">
          <mxGeometry x="390" y="1160" width="80" height="50" as="geometry" />
        </mxCell>
        <mxCell id="D9dwtIjZdYDTWbsvC_wG-14" value="" style="endArrow=none;html=1;rounded=0;entryX=0;entryY=0.5;entryDx=0;entryDy=0;" edge="1" parent="1" source="8AGuU69_h8K9wH-vG9Zy-2" target="8AGuU69_h8K9wH-vG9Zy-67">
          <mxGeometry width="50" height="50" relative="1" as="geometry">
            <mxPoint x="300" y="180" as="sourcePoint" />
            <mxPoint x="400" y="305" as="targetPoint" />
          </mxGeometry>
        </mxCell>
        <mxCell id="D9dwtIjZdYDTWbsvC_wG-15" value="" style="endArrow=none;html=1;rounded=0;entryX=0;entryY=0.5;entryDx=0;entryDy=0;exitX=1;exitY=0.3333333333333333;exitDx=0;exitDy=0;exitPerimeter=0;" edge="1" parent="1" source="8AGuU69_h8K9wH-vG9Zy-2" target="8AGuU69_h8K9wH-vG9Zy-76">
          <mxGeometry width="50" height="50" relative="1" as="geometry">
            <mxPoint x="310" y="190" as="sourcePoint" />
            <mxPoint x="410" y="315" as="targetPoint" />
          </mxGeometry>
        </mxCell>
        <mxCell id="D9dwtIjZdYDTWbsvC_wG-16" value="" style="endArrow=none;html=1;rounded=0;entryX=0.038;entryY=0.32;entryDx=0;entryDy=0;exitX=1;exitY=0.3333333333333333;exitDx=0;exitDy=0;exitPerimeter=0;entryPerimeter=0;" edge="1" parent="1" source="8AGuU69_h8K9wH-vG9Zy-2" target="8AGuU69_h8K9wH-vG9Zy-83">
          <mxGeometry width="50" height="50" relative="1" as="geometry">
            <mxPoint x="320" y="200" as="sourcePoint" />
            <mxPoint x="420" y="325" as="targetPoint" />
          </mxGeometry>
        </mxCell>
        <mxCell id="D9dwtIjZdYDTWbsvC_wG-18" value="choose payment" style="ellipse;whiteSpace=wrap;html=1;" vertex="1" parent="1">
          <mxGeometry x="600" y="410" width="80" height="50" as="geometry" />
        </mxCell>
        <mxCell id="D9dwtIjZdYDTWbsvC_wG-20" value="&amp;lt;include&amp;gt;" style="endArrow=open;endSize=12;dashed=1;html=1;rounded=0;exitX=1;exitY=0.5;exitDx=0;exitDy=0;entryX=0;entryY=0.5;entryDx=0;entryDy=0;" edge="1" parent="1" source="8AGuU69_h8K9wH-vG9Zy-67" target="D9dwtIjZdYDTWbsvC_wG-18">
          <mxGeometry width="160" relative="1" as="geometry">
            <mxPoint x="470" y="440" as="sourcePoint" />
            <mxPoint x="630" y="440" as="targetPoint" />
          </mxGeometry>
        </mxCell>
        <mxCell id="D9dwtIjZdYDTWbsvC_wG-22" value="" style="endArrow=none;html=1;rounded=0;entryX=0;entryY=0.5;entryDx=0;entryDy=0;exitX=1;exitY=0.3333333333333333;exitDx=0;exitDy=0;exitPerimeter=0;" edge="1" parent="1" source="8AGuU69_h8K9wH-vG9Zy-4" target="D9dwtIjZdYDTWbsvC_wG-12">
          <mxGeometry width="50" height="50" relative="1" as="geometry">
            <mxPoint x="310" y="590" as="sourcePoint" />
            <mxPoint x="393" y="686" as="targetPoint" />
          </mxGeometry>
        </mxCell>
        <mxCell id="D9dwtIjZdYDTWbsvC_wG-23" value="" style="endArrow=none;html=1;rounded=0;entryX=0;entryY=0.5;entryDx=0;entryDy=0;exitX=1;exitY=0.3333333333333333;exitDx=0;exitDy=0;exitPerimeter=0;" edge="1" parent="1" source="8AGuU69_h8K9wH-vG9Zy-3" target="8AGuU69_h8K9wH-vG9Zy-119">
          <mxGeometry width="50" height="50" relative="1" as="geometry">
            <mxPoint x="320" y="600" as="sourcePoint" />
            <mxPoint x="403" y="696" as="targetPoint" />
          </mxGeometry>
        </mxCell>
        <mxCell id="D9dwtIjZdYDTWbsvC_wG-24" value="" style="endArrow=none;html=1;rounded=0;entryX=0;entryY=0.5;entryDx=0;entryDy=0;exitX=1;exitY=0.3333333333333333;exitDx=0;exitDy=0;exitPerimeter=0;" edge="1" parent="1" source="8AGuU69_h8K9wH-vG9Zy-3" target="D9dwtIjZdYDTWbsvC_wG-13">
          <mxGeometry width="50" height="50" relative="1" as="geometry">
            <mxPoint x="330" y="610" as="sourcePoint" />
            <mxPoint x="413" y="706" as="targetPoint" />
          </mxGeometry>
        </mxCell>
        <mxCell id="D9dwtIjZdYDTWbsvC_wG-26" value="" style="endArrow=none;html=1;rounded=0;entryX=0;entryY=0.5;entryDx=0;entryDy=0;exitX=1;exitY=0.3333333333333333;exitDx=0;exitDy=0;exitPerimeter=0;" edge="1" parent="1" source="8AGuU69_h8K9wH-vG9Zy-4" target="8AGuU69_h8K9wH-vG9Zy-102">
          <mxGeometry width="50" height="50" relative="1" as="geometry">
            <mxPoint x="300" y="905" as="sourcePoint" />
            <mxPoint x="400" y="965" as="targetPoint" />
          </mxGeometry>
        </mxCell>
      </root>
    </mxGraphModel>
  </diagram>
</mxfile>
